# xmcd
#
# Track frame offsets:
#	150
#	13732
#	26577
#	39380
#	52352
#	65132
#	76860
#	87207
#	99235
#	111485
#	123290
#	136220
#
# Disc length: 2001 seconds
#
# Revision: 2
# Processed by: cddbd v1.4b42PL1 Copyright (c) Steve Scherf et al.
# Submitted via: EasyCDDAExtractor 4.5.0.2
#
DISCID=9e07cf0c
DTITLE=Bluegrass Album Band - Volume 2
DYEAR=1982
DGENRE=Bluegrass
TTITLE0=Your Love is Like a Flower
TTITLE1=We May Meet Again Someday
TTITLE2=Take Me in the Lifeboat
TTITLE3=Sittin' Alone in the Moonlight
TTITLE4=Back to the Cross
TTITLE5=Just When I Needed You
TTITLE6=One Tear
TTITLE7=Ocean of Diamonds
TTITLE8=Is It Too Late Now
TTITLE9=So Happy I'll Be
TTITLE10=Don't This Road Look Rough and Rocky
TTITLE11=I'll Never Shed Another Tear
EXTD=
EXTT0=
EXTT1=
EXTT2=
EXTT3=
EXTT4=
EXTT5=
EXTT6=
EXTT7=
EXTT8=
EXTT9=
EXTT10=
EXTT11=
PLAYORDER=
